<svg width="20" height="20" viewBox="0 0 20 20" fill="none" xmlns="http://www.w3.org/2000/svg">
<path d="M7.8916 12.7333C7.73327 12.7333 7.57493 12.675 7.44993 12.55C6.7666 11.8667 6.3916 10.9583 6.3916 10C6.3916 8.00833 8.00827 6.39166 9.99993 6.39166C10.9583 6.39166 11.8666 6.76666 12.5499 7.45C12.6666 7.56666 12.7333 7.725 12.7333 7.89166C12.7333 8.05833 12.6666 8.21666 12.5499 8.33333L8.33327 12.55C8.20827 12.675 8.04994 12.7333 7.8916 12.7333ZM9.99993 7.64166C8.69993 7.64166 7.6416 8.7 7.6416 10C7.6416 10.4167 7.74993 10.8167 7.94993 11.1667L11.1666 7.95C10.8166 7.75 10.4166 7.64166 9.99993 7.64166Z" fill="#848484"/>
<path d="M4.66654 15.425C4.52487 15.425 4.37487 15.375 4.2582 15.275C3.36654 14.5167 2.56654 13.5833 1.8832 12.5C0.99987 11.125 0.99987 8.88334 1.8832 7.5C3.91654 4.31667 6.87487 2.48334 9.99987 2.48334C11.8332 2.48334 13.6415 3.11667 15.2249 4.30834C15.4999 4.51667 15.5582 4.90834 15.3499 5.18334C15.1415 5.45834 14.7499 5.51667 14.4749 5.30834C13.1082 4.275 11.5582 3.73334 9.99987 3.73334C7.3082 3.73334 4.7332 5.35 2.9332 8.175C2.3082 9.15 2.3082 10.85 2.9332 11.825C3.5582 12.8 4.27487 13.6417 5.06654 14.325C5.32487 14.55 5.3582 14.9417 5.1332 15.2083C5.01654 15.35 4.84154 15.425 4.66654 15.425Z" fill="#848484"/>
<path d="M10.0001 17.5166C8.8918 17.5166 7.80847 17.2916 6.7668 16.85C6.45013 16.7166 6.30013 16.35 6.43347 16.0333C6.5668 15.7166 6.93347 15.5666 7.25013 15.7C8.13347 16.075 9.05847 16.2666 9.9918 16.2666C12.6835 16.2666 15.2585 14.65 17.0585 11.825C17.6835 10.85 17.6835 9.14998 17.0585 8.17498C16.8001 7.76665 16.5168 7.37498 16.2168 7.00831C16.0001 6.74164 16.0418 6.34998 16.3085 6.12498C16.5751 5.90831 16.9668 5.94165 17.1918 6.21665C17.5168 6.61665 17.8335 7.04998 18.1168 7.49998C19.0001 8.87498 19.0001 11.1166 18.1168 12.5C16.0835 15.6833 13.1251 17.5166 10.0001 17.5166Z" fill="#848484"/>
<path d="M10.5747 13.5583C10.283 13.5583 10.0163 13.35 9.95799 13.05C9.89133 12.7083 10.1163 12.3833 10.458 12.325C11.3747 12.1583 12.1413 11.3916 12.308 10.475C12.3747 10.1333 12.6997 9.91665 13.0413 9.97498C13.383 10.0416 13.608 10.3666 13.5413 10.7083C13.2747 12.15 12.1247 13.2916 10.6913 13.5583C10.6497 13.55 10.6163 13.5583 10.5747 13.5583Z" fill="#848484"/>
<path d="M1.66686 18.9583C1.50853 18.9583 1.3502 18.9 1.2252 18.775C0.983529 18.5333 0.983529 18.1333 1.2252 17.8917L7.4502 11.6667C7.69186 11.425 8.09186 11.425 8.33353 11.6667C8.5752 11.9083 8.5752 12.3083 8.33353 12.55L2.10853 18.775C1.98353 18.9 1.8252 18.9583 1.66686 18.9583Z" fill="#848484"/>
<path d="M12.1083 8.51668C11.9499 8.51668 11.7916 8.45835 11.6666 8.33335C11.4249 8.09168 11.4249 7.69168 11.6666 7.45001L17.8916 1.22501C18.1333 0.983346 18.5333 0.983346 18.7749 1.22501C19.0166 1.46668 19.0166 1.86668 18.7749 2.10835L12.5499 8.33335C12.4249 8.45835 12.2666 8.51668 12.1083 8.51668Z" fill="#848484"/>
</svg>
