<svg width="20" height="20" viewBox="0 0 20 20" fill="none" xmlns="http://www.w3.org/2000/svg">
<path d="M10 13.6083C8.00833 13.6083 6.39166 11.9917 6.39166 10C6.39166 8.00833 8.00833 6.39166 10 6.39166C11.9917 6.39166 13.6083 8.00833 13.6083 10C13.6083 11.9917 11.9917 13.6083 10 13.6083ZM10 7.64166C8.7 7.64166 7.64166 8.7 7.64166 10C7.64166 11.3 8.7 12.3583 10 12.3583C11.3 12.3583 12.3583 11.3 12.3583 10C12.3583 8.7 11.3 7.64166 10 7.64166Z" fill="#848484"/>
<path d="M9.99999 17.5167C6.86666 17.5167 3.90833 15.6833 1.87499 12.5C0.991661 11.125 0.991661 8.88334 1.87499 7.5C3.91666 4.31667 6.87499 2.48334 9.99999 2.48334C13.125 2.48334 16.0833 4.31667 18.1167 7.5C19 8.875 19 11.1167 18.1167 12.5C16.0833 15.6833 13.125 17.5167 9.99999 17.5167ZM9.99999 3.73334C7.30833 3.73334 4.73333 5.35 2.93333 8.175C2.30833 9.15 2.30833 10.85 2.93333 11.825C4.73333 14.65 7.30833 16.2667 9.99999 16.2667C12.6917 16.2667 15.2667 14.65 17.0667 11.825C17.6917 10.85 17.6917 9.15 17.0667 8.175C15.2667 5.35 12.6917 3.73334 9.99999 3.73334Z" fill="#848484"/>
</svg>
