<svg width="20" height="20" viewBox="0 0 20 20" fill="none" xmlns="http://www.w3.org/2000/svg">
<path d="M17.79 2.22007C14.83 -0.729932 10.03 -0.729932 7.09002 2.22007C5.02002 4.27007 4.40002 7.22007 5.20002 9.82007L0.500024 14.5201C0.170024 14.8601 -0.0599758 15.5301 0.0100242 16.0101L0.310024 18.1901C0.420024 18.9101 1.09002 19.5901 1.81002 19.6901L3.99002 19.9901C4.47002 20.0601 5.14002 19.8401 5.48002 19.4901L6.30002 18.6701C6.50002 18.4801 6.50002 18.1601 6.30002 17.9601L4.36002 16.0201C4.07002 15.7301 4.07002 15.2501 4.36002 14.9601C4.65002 14.6701 5.13002 14.6701 5.42002 14.9601L7.37002 16.9101C7.56002 17.1001 7.88002 17.1001 8.07002 16.9101L10.19 14.8001C12.78 15.6101 15.73 14.9801 17.79 12.9301C20.74 9.98007 20.74 5.17007 17.79 2.22007ZM12.5 10.0001C11.12 10.0001 10 8.88007 10 7.50007C10 6.12007 11.12 5.00007 12.5 5.00007C13.88 5.00007 15 6.12007 15 7.50007C15 8.88007 13.88 10.0001 12.5 10.0001Z" fill="#434447"/>
</svg>
